<?xml version="1.0" encoding="utf-8"?>
<!-- Generator: Adobe Illustrator 17.0.0, SVG Export Plug-In . SVG Version: 6.00 Build 0)  -->
<!DOCTYPE svg PUBLIC "-//W3C//DTD SVG 1.1//EN" "http://www.w3.org/Graphics/SVG/1.1/DTD/svg11.dtd">
<svg version="1.1" id="Layer_1" xmlns="http://www.w3.org/2000/svg" xmlns:xlink="http://www.w3.org/1999/xlink" x="0px" y="0px"
	 width="350px" height="105.411px" viewBox="0 0 350 105.411" enable-background="new 0 0 350 105.411" xml:space="preserve">
<g>
	<path fill="#FFFFFF" d="M142.492,5.215c-3.962-3.401-9.99-5.102-18.082-5.102h-9.106v39.053h7.714
		c8.598,0,14.985-1.805,19.159-5.417c4.173-3.61,6.259-8.523,6.259-14.739C148.437,13.215,146.455,8.617,142.492,5.215z"/>
	<rect x="-77.823" fill="#FFFFFF" width="157.855" height="105.411"/>
	<path fill="#FFFFFF" d="M235.69,40.3c13.459,11.255,21.621,18.351,24.482,21.29c7.148,7.224,12.219,14.131,15.205,20.724
		c2.986,6.594,4.48,13.794,4.48,21.604c0,0.502-0.016,0.997-0.027,1.493H425V0H267.147L250.46,14.726
		C245.686,8.084,240.868,3.186,236.005,0h-25.695c-2.419,2.3-3.642,4.856-3.642,7.672c0,3.108,1.051,6.047,3.154,8.818
		C212.683,20.187,221.306,28.123,235.69,40.3z"/>
	<path fill="#FFFFFF" d="M159.674,105.411c1.154-2.596,1.738-5.569,1.738-8.926c0-7.978-2.99-14.276-8.97-18.896
		c-5.98-4.617-15.917-6.929-29.812-6.929h-7.326v34.751H159.674z"/>
	<path fill="#FFFFFF" d="M188.245,69.589c5.206,7.937,7.811,17.322,7.811,28.156c0,1.841-0.089,3.652-0.257,5.436
		c0.481,0.767,0.966,1.507,1.454,2.23h47.962c-0.005-4.192-1.56-8.384-4.669-12.579c-3.113-4.198-9.969-10.623-20.568-19.274
		c-20.193-16.459-33.232-29.164-39.123-38.108c-0.732-1.112-1.418-2.223-2.059-3.334c-0.226,0.484-0.446,0.97-0.692,1.445
		c-2.981,5.753-7.832,11.149-14.55,16.188C174.807,55.039,183.037,61.653,188.245,69.589z"/>
</g>
</svg>
